<svg id="图层_1" data-name="图层 1" xmlns="http://www.w3.org/2000/svg" viewBox="0 0 144 42"><defs><style>.cls-1,.cls-2{fill:#fff;}.cls-1{stroke:#fff;stroke-miterlimit:10;stroke-width:0.2px;}.cls-3{fill:#ea4335;}.cls-4{fill:#fbbc04;}.cls-5{fill:#4285f4;}.cls-6{fill:#34a853;}</style></defs><title>googleplay</title><g id="编组备份-2"><g id="编组-13"><g id="移动端_按钮_googleplay" data-name="移动端/按钮/googleplay"><rect id="Background-Black" width="144" height="42" rx="8" ry="8"/><path class="cls-1" d="M49.75,10.75a2.81,2.81,0,0,1-.78,2.1,3,3,0,0,1-2.31.94,3.33,3.33,0,0,1-3.27-3.34,3.24,3.24,0,0,1,3.19-3.29h.08A3.66,3.66,0,0,1,48,7.4a2.59,2.59,0,0,1,1,.7l-.58.58a2,2,0,0,0-.75-.55,2.66,2.66,0,0,0-1-.2,2.38,2.38,0,0,0-1.74.71,2.5,2.5,0,0,0-.7,1.81,2.46,2.46,0,0,0,.7,1.8,2.38,2.38,0,0,0,1.74.71,2.28,2.28,0,0,0,1.56-.53A2.11,2.11,0,0,0,48.93,11H46.66v-.7h3.05A2.49,2.49,0,0,1,49.75,10.75Z"/><path class="cls-1" d="M54.59,7.35v.77H51.72v2h2.59v.76H51.72v2h2.87v.77H50.92V7.35Z"/><path class="cls-1" d="M58,8.12v5.52h-.81V8.12H55.44V7.35h4.32v.77Z"/><path class="cls-1" d="M63.7,13.64h-.81V7.35h.81Z"/><path class="cls-1" d="M67.29,8.12v5.52h-.81V8.12H64.72V7.35h4.33v.77Z"/><path class="cls-1" d="M78.16,10.5a3.2,3.2,0,0,1-.93,2.34,3.27,3.27,0,0,1-4.61,0,3.2,3.2,0,0,1-.93-2.34,3.2,3.2,0,0,1,.93-2.34,3.21,3.21,0,0,1,4.61.05A3.17,3.17,0,0,1,78.16,10.5Zm-5.64,0a2.55,2.55,0,0,0,.68,1.8,2.37,2.37,0,0,0,1.73.68,2.31,2.31,0,0,0,1.71-.71,2.46,2.46,0,0,0,.7-1.8,2.49,2.49,0,0,0-.7-1.81,2.48,2.48,0,0,0-3.44,0A2.53,2.53,0,0,0,72.52,10.5Z"/><path class="cls-1" d="M80.1,13.64h-.8V7.35h1l3.06,4.9h0V7.35h.81v6.29h-.84L80.1,8.51h0v5.13Z"/><path class="cls-2" d="M71.49,22.83A4.46,4.46,0,1,0,76,27.29a4.39,4.39,0,0,0-4.32-4.46Zm0,7.16A2.71,2.71,0,1,1,74,27.1a1.21,1.21,0,0,1,0,.19A2.58,2.58,0,0,1,71.54,30h-.05Zm-9.77-7.16a4.46,4.46,0,1,0,4.48,4.46,4.39,4.39,0,0,0-4.32-4.46Zm0,7.16a2.71,2.71,0,1,1,2.51-2.89,1.21,1.21,0,0,1,0,.19A2.58,2.58,0,0,1,61.77,30h-.05ZM50.1,24.2v1.89h4.53a4,4,0,0,1-1,2.38,4.61,4.61,0,0,1-3.49,1.39,5,5,0,0,1,0-10.08,4.86,4.86,0,0,1,3.41,1.36l1.28-1.34a6.62,6.62,0,0,0-4.75-1.91,6.93,6.93,0,1,0,0,13.86A6.14,6.14,0,0,0,56.55,26a5.8,5.8,0,0,0,0-.59,5.82,5.82,0,0,0-.1-1.18Zm47.53,1.47a4.14,4.14,0,0,0-3.8-2.84,4.25,4.25,0,0,0-4.21,4.27c0,.07,0,.13,0,.19a4.36,4.36,0,0,0,4.26,4.46h.16a4.42,4.42,0,0,0,3.72-2l-1.52-1A2.57,2.57,0,0,1,94,30a2.27,2.27,0,0,1-2.2-1.34l6-2.47Zm-6.08,1.48a2.45,2.45,0,0,1,2.27-2.6h.06a1.73,1.73,0,0,1,1.66.95ZM86.7,31.48h2V18.36h-2Zm-3.21-7.66h-.07a3.11,3.11,0,0,0-2.35-1,4.46,4.46,0,1,0,0,8.92,3,3,0,0,0,2.35-1h.07v.64c0,1.71-.92,2.62-2.39,2.62a2.48,2.48,0,0,1-2.27-1.59l-1.7.71a4.26,4.26,0,0,0,4,2.64c2.3,0,4.25-1.35,4.25-4.65v-8H83.49ZM81.24,30a2.71,2.71,0,0,1,0-5.4,2.52,2.52,0,0,1,2.39,2.63.28.28,0,0,0,0,.09A2.48,2.48,0,0,1,81.33,30Zm25.59-11.62h-4.7V31.48h2v-5h2.7a4.08,4.08,0,1,0,.4-8.15h-.4Zm0,6.33H104.1v-4.5h2.73a2.25,2.25,0,1,1,0,4.5ZM119,22.8a3.66,3.66,0,0,0-3.49,2l1.73.73a2.12,2.12,0,0,1,2.91-.65,2.08,2.08,0,0,1,.94,1.37v.14a4.22,4.22,0,0,0-2-.51c-1.87,0-3.78,1-3.78,2.95a3,3,0,0,0,3.1,2.9h.16A2.74,2.74,0,0,0,121,30.44h.07v1H123v-5c0-2.34-1.79-3.64-4-3.64ZM118.73,30c-.64,0-1.53-.32-1.53-1.11,0-1,1.11-1.4,2.07-1.4a3.4,3.4,0,0,1,1.79.44A2.37,2.37,0,0,1,118.73,30Zm11.1-6.89-2.25,5.69h-.07l-2.32-5.69h-2.11l3.49,8-2,4.42h2L132,23.14ZM112.2,31.48h2V18.36h-2Z"/><path class="cls-3" d="M21.74,20.39,10.57,32.24h0a3,3,0,0,0,2.91,2.23A3.09,3.09,0,0,0,15,34.06h0L27.59,26.8Z"/><path class="cls-4" d="M33,18.37h0l-5.43-3.15L21.5,20.66l6.13,6.14L33,23.68a3,3,0,0,0,1.24-4.06A3,3,0,0,0,33,18.38Z"/><path class="cls-5" d="M10.57,9.74a2.93,2.93,0,0,0-.1.78v21a2.86,2.86,0,0,0,.1.77l11.55-11.6Z"/><path class="cls-6" d="M21.83,21l5.78-5.78L15,8a3.05,3.05,0,0,0-1.56-.43,3,3,0,0,0-2.91,2.24h0Z"/></g></g></g></svg>