<svg id="图层_1" data-name="图层 1" xmlns="http://www.w3.org/2000/svg" viewBox="0 0 303 42"><defs><style>.cls-1,.cls-2{fill:#fff;}.cls-1{stroke:#fff;stroke-miterlimit:10;stroke-width:0.2px;}.cls-3{fill:#ea4335;}.cls-4{fill:#fbbc04;}.cls-5{fill:#4285f4;}.cls-6{fill:#34a853;}</style></defs><title>googleplay_long</title><g id="移动"><g id="our-apps-搜索结果"><g id="编组"><g id="移动端_按钮_googleplay" data-name="移动端/按钮/googleplay"><rect id="Background-Black" width="303" height="42" rx="8" ry="8"/><path class="cls-1" d="M130,10.75a2.85,2.85,0,0,1-.78,2.1,3,3,0,0,1-2.31.94,3.32,3.32,0,0,1-3.27-3.34,3.24,3.24,0,0,1,3.18-3.29h.09a3.87,3.87,0,0,1,1.34.24,2.67,2.67,0,0,1,1,.7l-.58.58a2.11,2.11,0,0,0-.75-.55,2.66,2.66,0,0,0-1-.2,2.35,2.35,0,0,0-1.74.71,2.49,2.49,0,0,0-.7,1.81,2.42,2.42,0,0,0,.7,1.8,2.52,2.52,0,0,0,3.3.18,2.13,2.13,0,0,0,.7-1.43h-2.27v-.7h3A3.42,3.42,0,0,1,130,10.75Z"/><path class="cls-1" d="M134.86,7.35v.77H132v2h2.59v.76H132v2h2.87v.77h-3.67V7.35Z"/><path class="cls-1" d="M138.27,8.12v5.52h-.81V8.12h-1.75V7.35H140v.77Z"/><path class="cls-1" d="M144,13.64h-.81V7.35H144Z"/><path class="cls-1" d="M147.56,8.12v5.52h-.81V8.12H145V7.35h4.33v.77Z"/><path class="cls-1" d="M158.43,10.5a3.24,3.24,0,0,1-5.54,2.34A3.17,3.17,0,0,1,152,10.5a3.21,3.21,0,0,1,5.46-2.36l.08.07A3.21,3.21,0,0,1,158.43,10.5Zm-5.64,0a2.5,2.5,0,0,0,.68,1.8,2.48,2.48,0,0,0,3.44,0,2.51,2.51,0,0,0,.7-1.8,2.53,2.53,0,0,0-.7-1.81,2.41,2.41,0,0,0-4.12,1.84Z"/><path class="cls-1" d="M160.37,13.64h-.8V7.35h1l3.06,4.9h0V7.35h.81v6.29h-.84l-3.23-5.13h0Z"/><path class="cls-2" d="M151.76,22.83a4.46,4.46,0,1,0,4.51,4.46A4.4,4.4,0,0,0,152,22.83h-.19Zm0,7.16a2.71,2.71,0,1,1,2.5-2.9h0v.19A2.59,2.59,0,0,1,151.82,30h-.06ZM142,22.83a4.46,4.46,0,1,0,4.48,4.46,4.4,4.4,0,0,0-4.32-4.46H142ZM142,30a2.71,2.71,0,1,1,2.5-2.9h0v.19A2.59,2.59,0,0,1,142.05,30H142ZM130.37,24.2v1.89h4.53a4.1,4.1,0,0,1-1,2.38,4.64,4.64,0,0,1-3.49,1.39,5,5,0,1,1,0-10.08,4.88,4.88,0,0,1,3.41,1.36l1.28-1.34a6.62,6.62,0,0,0-4.75-1.91,6.93,6.93,0,1,0,0,13.86h0A6.14,6.14,0,0,0,136.82,26a5.81,5.81,0,0,0,0-.59,6.64,6.64,0,0,0-.1-1.18Zm47.53,1.47a4.16,4.16,0,0,0-3.8-2.84,4.24,4.24,0,0,0-4.21,4.27v.19a4.36,4.36,0,0,0,4.25,4.46h.17a4.45,4.45,0,0,0,3.72-2l-1.52-1A2.59,2.59,0,0,1,174.27,30a2.26,2.26,0,0,1-2.2-1.34l6-2.47Zm-6.08,1.48a2.45,2.45,0,0,1,2.27-2.6h.06a1.74,1.74,0,0,1,1.66.95ZM167,31.48h2V18.36h-2Zm-3.21-7.66h-.07a3.13,3.13,0,0,0-2.35-1,4.46,4.46,0,0,0,0,8.92,3,3,0,0,0,2.35-1h.07v.64c0,1.71-.92,2.62-2.39,2.62a2.48,2.48,0,0,1-2.27-1.59l-1.7.71a4.26,4.26,0,0,0,4,2.64c2.3,0,4.25-1.35,4.25-4.65v-8h-1.89ZM161.51,30a2.71,2.71,0,0,1,0-5.4,2.53,2.53,0,0,1,2.39,2.63.14.14,0,0,0,0,.09A2.5,2.5,0,0,1,161.63,30h-.12ZM187.1,18.38h-4.7v13.1h2v-5h2.7a4.08,4.08,0,1,0,.45-8.15h-.45Zm0,6.33h-2.73v-4.5h2.73a2.25,2.25,0,0,1,0,4.5Zm12.17-1.91a3.65,3.65,0,0,0-3.49,2l1.73.73a2.11,2.11,0,0,1,2.91-.65,2.08,2.08,0,0,1,.94,1.37v.14a4.28,4.28,0,0,0-2-.51c-1.87,0-3.78,1-3.78,2.95a3,3,0,0,0,3.09,2.9h.17a2.75,2.75,0,0,0,2.43-1.29h.07v1h1.93v-5C203.27,24.1,201.48,22.8,199.27,22.8ZM199,30c-.64,0-1.53-.32-1.53-1.11,0-1,1.11-1.4,2.07-1.4a3.42,3.42,0,0,1,1.79.44A2.37,2.37,0,0,1,199,30Zm11.1-6.89-2.25,5.69h-.07l-2.32-5.69h-2.11l3.49,8-2,4.42h2l5.43-12.39Zm-17.63,8.37h2V18.36h-2Z"/><path class="cls-3" d="M102,20.39,90.84,32.24h0a3,3,0,0,0,2.91,2.23,3,3,0,0,0,1.52-.41h0l12.59-7.26Z"/><path class="cls-4" d="M113.27,18.37h0l-5.43-3.15-6.07,5.44,6.13,6.14,5.37-3.12a3,3,0,0,0,1.24-4.06h0a3.08,3.08,0,0,0-1.24-1.24Z"/><path class="cls-5" d="M90.84,9.74a2.57,2.57,0,0,0-.1.78v21a2.51,2.51,0,0,0,.1.77l11.55-11.6Z"/><path class="cls-6" d="M102.1,21l5.78-5.78L95.27,8a3.11,3.11,0,0,0-1.56-.43A3,3,0,0,0,90.8,9.81h0Z"/></g></g></g></g></svg>